<mxfile host="app.diagrams.net" modified="2023-11-27T02:42:09.736Z" agent="Mozilla/5.0 (Windows NT 10.0; Win64; x64; rv:109.0) Gecko/20100101 Firefox/119.0" version="22.1.4" etag="I68p4paSRRLWwTOr2w_I" type="github">
  <diagram name="Page-1" id="lZ41zR5HjP0TfRQfjL5y">
    <mxGraphModel>
      <root>
        <mxCell id="0" />
        <mxCell id="1" parent="0" />
      </root>
    </mxGraphModel>
  </diagram>
</mxfile>
